<svg width="17" height="17" viewBox="0 0 17 17" fill="none" xmlns="http://www.w3.org/2000/svg">
<path d="M4.07654 14.367L2.83341 5.6665H14.1667L12.9236 14.367C12.8754 14.7045 12.707 15.0134 12.4493 15.2368C12.1917 15.4602 11.8621 15.5832 11.5211 15.5832H5.47904C5.13803 15.5832 4.80846 15.4602 4.55083 15.2368C4.29319 15.0134 4.12479 14.7045 4.07654 14.367ZM14.8751 2.83317H11.3334V2.12484C11.3334 1.93698 11.2588 1.75681 11.1259 1.62397C10.9931 1.49113 10.8129 1.4165 10.6251 1.4165H6.37508C6.18722 1.4165 6.00705 1.49113 5.87421 1.62397C5.74138 1.75681 5.66675 1.93698 5.66675 2.12484V2.83317H2.12508C1.93722 2.83317 1.75705 2.9078 1.62421 3.04064C1.49138 3.17347 1.41675 3.35364 1.41675 3.5415C1.41675 3.72937 1.49138 3.90953 1.62421 4.04237C1.75705 4.17521 1.93722 4.24984 2.12508 4.24984H14.8751C15.0629 4.24984 15.2431 4.17521 15.3759 4.04237C15.5088 3.90953 15.5834 3.72937 15.5834 3.5415C15.5834 3.35364 15.5088 3.17347 15.3759 3.04064C15.2431 2.9078 15.0629 2.83317 14.8751 2.83317Z" fill="white"/>
</svg>
