
<svg width="14" height="13" viewBox="0 0 14 13" fill="none" xmlns="http://www.w3.org/2000/svg">
<path d="M3.5339 0.890106L3.31896 2.55395H10.6798L10.4649 0.890106C10.4649 0.386868 10.055 0 9.54702 0H4.43112C3.92315 0 3.53265 0.386868 3.53265 0.890106H3.5339ZM0.898469 3.46262H13.1015C13.6095 3.46262 14 3.84949 14 4.35273V9.65313C14 10.1564 13.6095 10.5432 13.1015 10.5432H11.442V13H2.55795V10.5432H0.898469C0.390503 10.5432 0 10.1564 0 9.65313V4.35273C0 3.84949 0.390503 3.46262 0.898469 3.46262ZM10.5436 12.1093V6.36444H3.4558V12.1093H10.5436ZM9.48953 8.02766H4.413C4.29553 8.02766 4.19806 7.91129 4.19806 7.79554V7.52443C4.19806 7.40806 4.29553 7.31149 4.413 7.31149H9.48953C9.607 7.31149 9.72384 7.40806 9.72384 7.52443V7.79554C9.72384 7.91191 9.60637 8.02766 9.48953 8.02766ZM9.48953 9.63332H4.413C4.29553 9.63332 4.19806 9.51695 4.19806 9.4012V9.13008C4.19806 9.01371 4.29553 8.91715 4.413 8.91715H9.48953C9.607 8.91715 9.72384 9.01371 9.72384 9.13008V9.4012C9.72384 9.51757 9.60637 9.63332 9.48953 9.63332ZM9.48953 11.2384H4.413C4.29553 11.2384 4.19806 11.122 4.19806 11.0062V10.7351C4.19806 10.6188 4.29553 10.5222 4.413 10.5222H9.48953C9.607 10.5222 9.72384 10.6188 9.72384 10.7351V11.0062C9.72384 11.1226 9.60637 11.2384 9.48953 11.2384Z" fill="white"/>
</svg>
